<svg height="478" width="720" xmlns="http://www.w3.org/2000/svg">
<rect height="478" fill="#555" width="720"></rect>
<text fill="#7f7" font-family="Courier New" font-size="12" xml:space="preserve">
<tspan x="10" y="26">15 megabytes installed</tspan>
<tspan x="10" y="42"></tspan>
<tspan x="10" y="58">node_modules</tspan>
<tspan x="10" y="74">├── UNMET PEER DEPENDENCY react@0.13.x || 0.14.x || 15.x.x</tspan>
<tspan x="10" y="90">└─┬ react-share@1.13.2 </tspan>
<tspan x="10" y="106">  ├─┬ babel-runtime@6.6.1 </tspan>
<tspan x="10" y="122">  │ └── core-js@2.4.1 </tspan>
<tspan x="10" y="138">  ├── classnames@2.2.5 </tspan>
<tspan x="10" y="154">  ├─┬ jsonp@0.2.1 </tspan>
<tspan x="10" y="170">  │ └─┬ debug@2.6.5 </tspan>
<tspan x="10" y="186">  │   └── ms@0.7.3 </tspan>
<tspan x="10" y="202">  ├── platform@1.3.4 </tspan>
<tspan x="10" y="218">  └─┬ prop-types@15.5.8 </tspan>
<tspan x="10" y="234">    └─┬ fbjs@0.8.12 </tspan>
<tspan x="10" y="250">      ├── core-js@1.2.7 </tspan>
<tspan x="10" y="266">      ├─┬ isomorphic-fetch@2.2.1 </tspan>
<tspan x="10" y="282">      │ ├─┬ node-fetch@1.6.3 </tspan>
<tspan x="10" y="298">      │ │ ├─┬ encoding@0.1.12 </tspan>
<tspan x="10" y="314">      │ │ │ └── iconv-lite@0.4.16 </tspan>
<tspan x="10" y="330">      │ │ └── is-stream@1.1.0 </tspan>
<tspan x="10" y="346">      │ └── whatwg-fetch@2.0.3 </tspan>
<tspan x="10" y="362">      ├─┬ loose-envify@1.3.1 </tspan>
<tspan x="10" y="378">      │ └── js-tokens@3.0.1 </tspan>
<tspan x="10" y="394">      ├── object-assign@4.1.1 </tspan>
<tspan x="10" y="410">      ├─┬ promise@7.1.1 </tspan>
<tspan x="10" y="426">      │ └── asap@2.0.5 </tspan>
<tspan x="10" y="442">      ├── setimmediate@1.0.5 </tspan>
<tspan x="10" y="458">      └── ua-parser-js@0.7.12</tspan>
</text>
</svg>
